<?xml version="1.0" encoding="UTF-8" standalone="no"?>
<!-- Created with Inkscape (http://www.inkscape.org/) -->

<svg
   width="64.57711mm"
   height="74.086105mm"
   viewBox="0 0 64.57711 74.086105"
   version="1.1"
   id="svg5"
   xml:space="preserve"
   inkscape:version="1.2.2 (b0a84865, 2022-12-01)"
   sodipodi:docname="stopwatch.svg"
   xmlns:inkscape="http://www.inkscape.org/namespaces/inkscape"
   xmlns:sodipodi="http://sodipodi.sourceforge.net/DTD/sodipodi-0.dtd"
   xmlns="http://www.w3.org/2000/svg"
   xmlns:svg="http://www.w3.org/2000/svg"><sodipodi:namedview
     id="namedview7"
     pagecolor="#505050"
     bordercolor="#eeeeee"
     borderopacity="1"
     inkscape:showpageshadow="0"
     inkscape:pageopacity="0"
     inkscape:pagecheckerboard="0"
     inkscape:deskcolor="#505050"
     inkscape:document-units="mm"
     showgrid="false"
     inkscape:zoom="0.2102413"
     inkscape:cx="977.44829"
     inkscape:cy="202.14867"
     inkscape:window-width="1246"
     inkscape:window-height="830"
     inkscape:window-x="0"
     inkscape:window-y="496"
     inkscape:window-maximized="0"
     inkscape:current-layer="layer1" /><defs
     id="defs2" /><g
     inkscape:label="Layer 1"
     inkscape:groupmode="layer"
     id="layer1"
     transform="translate(102.00329,-75.18239)"><path
       style="fill:#000000;stroke-width:0.264583"
       d="m -74.305704,149.09799 c -13.95014,-2.19011 -24.64059,-12.46958 -27.244686,-26.19732 -0.97867,-5.15914 -0.33777,-11.98511 1.599166,-17.03214 1.79694,-4.68222 4.16031,-8.183619 7.97239,-11.811299 3.66093,-3.48385 7.21134,-5.62963 11.97926,-7.23997 1.82999,-0.61806 2.73992,-1.05185 2.6662,-1.27104 -0.0616,-0.18301 -0.16312,-1.24778 -0.22568,-2.36614 -0.0977,-1.74579 -0.0222,-2.232295 0.53351,-3.439588 1.29647,-2.816627 3.98156,-4.545198 7.08014,-4.557962 2.1503,-0.0089 3.35813,0.402265 5.00403,1.703278 1.79309,1.417349 2.78551,3.479286 2.7945,5.806062 0.004,0.95032 -0.0855,2.05788 -0.19826,2.46126 -0.14324,0.51263 -0.10342,0.76066 0.13229,0.82393 4.28171,1.14925 7.63615,2.63368 10.73235,4.74934 1.20616,0.82419 2.28333,1.49853 2.3937,1.49853 0.11036,0 0.65944,-0.46984 1.22017,-1.04408 0.99609,-1.02008 1.00948,-1.05939 0.58286,-1.71048 -0.24042,-0.36693 -0.43664,-1.19509 -0.43664,-1.84282 0,-1.59349 1.0599,-2.54637 2.83233,-2.54637 1.17996,0 1.26486,0.0601 4.21303,2.98104 2.91378,2.88689 3.0088,3.01725 3.0088,4.1275 0,2.13124 -2.24339,3.59356 -4.05229,2.64143 -0.31785,-0.16731 -0.664,-0.4352 -0.76922,-0.59531 -0.12092,-0.18401 -0.64297,0.1592 -1.41887,0.93279 l -1.22756,1.22391 1.18825,1.45886 c 2.42935,2.982579 4.4962,7.293069 5.66597,11.816539 0.88779,3.4331 1.12265,9.16126 0.51754,12.6231 -1.26924,7.26132 -4.48758,13.25422 -9.83738,18.31825 -4.00748,3.79342 -8.68276,6.35981 -14.14352,7.76378 -2.55231,0.6562 -3.68236,0.79768 -7.01146,0.8778 -2.18281,0.0525 -4.68072,-0.0163 -5.55092,-0.15288 z m 7.66759,-5.57262 c 11.74466,-1.43927 20.74535,-9.80035 23.18219,-21.53482 0.18132,-0.87312 0.31969,-3.13531 0.30749,-5.02708 -0.0179,-2.77557 -0.15137,-3.93534 -0.69137,-6.00758 -1.51155,-5.80051 -4.63847,-10.70388 -9.08651,-14.248729 -8.21,-6.54293 -19.47535,-7.75098 -28.79305,-3.08766 -5.29009,2.64758 -9.9073,7.434339 -12.33451,12.787439 -1.56017,3.44088 -2.15941,6.38448 -2.17595,10.68882 -0.0166,4.3111 0.46533,6.86121 1.98764,10.51795 2.49378,5.99034 8.42046,11.8271 14.3191,14.10186 4.83369,1.86407 8.6262,2.38072 13.28497,1.8098 z m -4.24141,-20.06712 c -4.40989,-0.68201 -6.7393,-5.59066 -4.48141,-9.44346 1.26602,-2.16029 3.95633,-3.47256 6.32961,-3.08743 0.98546,0.15992 0.99747,0.15041 5.65913,-4.48034 2.56937,-2.55233 4.93164,-4.77238 5.2495,-4.93343 1.82641,-0.92544 4.05229,0.45376 4.05229,2.51088 0,1.1766 -0.68721,2.01732 -5.23986,6.41045 l -4.47623,4.31936 0.13116,1.83307 c 0.16629,2.32422 -0.36747,3.82002 -1.83683,5.1475 -1.65013,1.4908 -3.35823,2.03721 -5.38736,1.7234 z m 1.59557,-6.2302 c 0,-0.34733 -0.20457,-0.55822 -0.59531,-0.61371 -0.48833,-0.0694 -0.59531,0.0409 -0.59531,0.61371 0,0.57279 0.10698,0.68307 0.59531,0.61371 0.39074,-0.0555 0.59531,-0.26638 0.59531,-0.61371 z m 0.99219,-32.970729 c 1.13934,-1.37227 0.13518,-3.409478 -1.68056,-3.409478 -1.61872,0 -2.4952,1.466488 -1.79498,3.003298 0.59096,1.29701 2.5462,1.52552 3.47554,0.40618 z"
       id="path71"
       inkscape:export-filename="path71.png"
       inkscape:export-xdpi="96"
       inkscape:export-ydpi="96" /></g></svg>
